<svg xmlns="http://www.w3.org/2000/svg" viewBox="0 0 1024 1024"><path fill="#955e5d" stroke="#955e5d" d="M0 0h1024v1024H0zm511 92-28 36-20 33-10 26-5 22v8l-1 1-17-14-28-14-23-7-18-2v7l-1 1v13l-1 1v21l1 1v10l2 7v6l9 28h-7l-1-1h-32q-2 3-8 1l-19 4-21 7q11 25 28 45 28 31 70 49l30 11 20 5 17 2 1 1h7l1 1h10l1 1h31l1-1h11l1-1 9 2h39l1-1h9l15-3h6l25-6 25-9 27-13q18-10 33-24 27-23 41-60l-27-8-18-2-1-1h-29l-12 2 7-21 2-17 1-1v-9l1-1v-30l-1-1v-10l-1-7-17 3-26 9q-24 10-42 25v-1l-6-28-14-33q-19-33-43-59zM112 241l-2 1q-5 3-6 10v12l1 1v42l-1 1v12l-3 15v6l-1 1v33l1 1v7l-6 1-6 6-4 13v69l-1 5q-7 22-17 41l-2 9 1 9 13 36 22 47q21 40 50 72 44 50 111 78h2q-44-20-77-51-36-32-62-74-30-51-49-111v-9l3-9 10-20 7-24v-38l-1-1v-25l2-9 4-4 1 3v8l6 29 1 17 1 1v18l1 3-1 17-7 35q-1 9 2 14 1 2 7 1l2-2v-19l5-19 1-15 1-1v-27l-1-1v-10l-1-1-1-14-6-34-1-36-1-1v-15l4-21 1-23 1-1v-33l-1-1v-14q6-1 10 2l7 8 6 15 2 10v7l1 1 1 25 1 1v12l1 1 1 16 8 44 7 28 2 3 1 7 8 26 2 3v3l2 3v3l9 24 6 14 9 12q23 23 57 36h9l13-8q16-15 27-35l3-10v-8l1-1 1-29 5-16 5-8q7-12 23-16l13 2 2-3-1-4-5-4-5-1-13 2-10 6q-13 10-20 26l-5 20v19l-1 1v9l-2 10-16 24q-7 9-19 14h-4l-12-6-26-16-15-15v-3l18-30 11-24 18-13 11-14 5-12v-14l-2-4-7-6q-7-1-9 2l-21 15-33 18-4 3 10-22 3-10 7-5 16-6 10-7q13-10 17-30v-10l-3-8-6-5h-4l-26 17-29 12-15 10-10 12-6-30v-8l-1-1-1-23-1-1v-15l-1-1-1-15-6-20-6-9-10-9q-6-3-16-2Zm792 0-13 7q-10 9-14 24l-2 10v8l-1 1-1 24q-15-10-26-24-3 1-2-1l-11-9q-8 0-12 4l-2 4-3 12v12l2 9q6 15 17 26l5 5-23-10-32-18q-7-1-9 2l-6 10 1 15 5 12 6 8 13 10q10 7 25 10l4 7q4 16 12 29v2l-57-37-9-4-6 2q-5 3-7 10-1 11 2 18l7 12 5 5 2 3 17 12 2 3 14 29 15 24-2 5q-21 21-50 34-11 0-15-6-15-13-25-30l-3-15v-14l-1-1v-11l-1-1-1-11q-3-14-11-22-9-14-26-20l-14 1-6 8 5 3 5-2h7l10 5q11 8 17 22l4 16 1 24 1 1v7l2 10q6 14 16 26 10 13 27 20h9l16-7 33-22q12-10 18-25l14-38 12-39 7-28 9-51 6-65 4-14 5-8 10-7h5v12l-1 1v36l1 1v12l1 1 1 17 3 12v24l-1 1-1 32-5 28-2 25-1 1v15l-1 1 3 33 5 20v8l-1 1q-1 6 3 7l6-1 2-5-1-17-3-10-1-11-1-1v-8l-1-1 1-38 2-8 2-21 3-12v-6l1-1q-2-7 2-6l3 8q-1 5 1 7v32l-1 1v27q3 1 1 7l5 16 14 31-1 14-14 39-10 23-20 38q-17 28-38 53l-29 30q-3-1-2 2l-37 28-33 17v1l9-3 26-13 15-9q23-16 43-36 2 1 1-1l3-2q32-33 56-74l22-44 19-51v-14l-15-35-4-14v-68l-4-14q-3-7-12-7l1-3v-25l1-1-1-15-4-21v-11l-1-1v-47l1-1-2-12q-4-7-15-5ZM380 429l-3 3v280l2 1h70l3-4v-21l-1-3-1-2h-41l-2-1V432l-2-3zm85 0-2 2v251l2 9 4 8q7 9 20 14l16 3 16-1 15-6 11-12 5-16V432l-3-3h-25l-3 1v248l-2 6-4 3-4 1-11-1-6-7V432l-2-3zm106 0-3 3v27l3 2h44l-15 78-2 16-6 26v5l-5 21v5l-2 5-3 21-5 21v5l-4 16v5l-2 5v21l3 2h71l2-1 1-5v-19l-1-3-1-2h-42l44-224v-27l-2-3zM390 735l-4 2-6 8q-2 11 3 16l10 8 6 9q1 7-2 9-7 1-8-2v-10h-10q-1 9 2 15l5 4 7 2 8-1 3-2q4-3 5-9 1-10-3-14l-16-16-1-3 1-5 4-3 3 1q3 3 3 11l1-1h7l-1-12q-4-9-17-7Zm34 0-4 2-6 8q1 4-1 6v31l1 5 3 5 9 4 9-1 3-2 5-9v-34l-2-8-8-7zm-125 1v59h8l1-1v-9l-1-1 1-2v-2l-1-3 1-25 7 38v5h7l8-43h1v32l-1 2v2l1 4-1 2 2 1h8v-59h-14l-6 38-7-34v-4zm56 0-2 2v6l-5 25v6l-4 18 1 2h8l1-1 1-10 2-2 1 1h8l-1 2 2 10h9l1-1-10-53v-5zm91 0v8h9v50l2 1h8v-51h10v-8zm33 0v59h26v-9h-16v-19h11v-8h-11v-15h16v-8zm31 0v59h10v-25q0-2 6-1l2 3v18l1 1v4h9v-22l-2-6-5-2 3-2 4-5v-13l-2-4-7-5zm41 0-7 48-1 1v6l-1 1v3h9q2-4 1-11 1-3 3-1 5 2 7-1l2 7v6h10l-8-50-2-6v-3zm28 0v59h9v-24l12-1 3-2 4-7q1-11-1-18-2-6-8-7zm33 0v59h25l1-1v-8h-16v-19h11v-8h-11v-15h16v-8zm30 0v44q3 1 1 7l2 4q3 4 10 5l9-1 3-2 4-6v-51h-9v48l-1 2q-1 2-6 1l-3-3v-48zm33 0v8h10v51h10v-51h10v-8zm37 0-9 54v5h9l1-11 2-2 1 1h8v7l1 1v4h10l-10-55v-4zm50 32-5 2v1q5 1 7-2zm-497 1v1l4 2h3z"/><path fill="#955e5d" stroke="#955e5d" d="m512.5 112 26.5 32.5 9 14 5 10v3l-2 3.5-8 6.5q.8 2.3-1.5 1.5-15.4 16.1-28 35-2.2.8-1.5-1.5-17.7-24.8-40-45v-3q15.8-32.7 40.5-56.5Z"/><path fill="#955e5d" stroke="#955e5d" d="M466 182q2.7-1.1 2 1.5 27.6 25.4 44.5 61.5 17.9-36.6 46-63l7.5 21.5 1 11 1 1v13q-16.4 16.1-29 36L512.5 313l-6.5-16.5-10-18-17-25-17-21.5q-2.7 1.1-2-1.5l-2-2v-12l3-17zm-95 10q24 5.1 43.5 16l31.5 22.5v29l1 1 1 16 6 27 4 9-1.5.5q-14-12-32-20l-40-14-2.5-2.5-7-21-4-19q1.8-6.3-1-8v-28l1-1zm281.5 0q2.6-.8 1.5 2.5l1 1v37l-5 27-4 13-3.5 6.5-26 7-34 17-14 10-.5-1.5 4-11 5-21 1-12 1-1v-10l1-1v-25l2.5-2.5q15.1-13.4 34-23l24-10z"/><path fill="#955e5d" stroke="#955e5d" d="m568.5 243 .5 17.5-5 29-5 18-9 25-5 9 1.5.5q21.3-18.7 47-33l22-11 21.5-7q-14.8 30.9-40.5 52-21.1 18.4-46 33l-27 12-8 2h-6l-29-11-25-15q-25.9-18.6-46.5-42.5-12-13.5-19-30.5l21.5 8 26 13 43 31 .5-1.5-8-17-10-30-6-31v-18l-1-1 1.5-.5q20.7 23.8 36.5 52.5l11 24 6 17v3.5q3 1.3 2-2.5l25-53q13.6-22.9 30.5-42.5Z"/><path fill="#955e5d" stroke="#955e5d" d="m674.5 285 27 2 24.5 7q-13.5 28.6-37.5 48l-23 17-30 15-36 11-20 4h-7l-9 2h-13l-2 1-2-1-4 1 1-2q19.8-7.2 35-19 24.9-18.1 45.5-40.5 15.9-19.6 27.5-43.5l22-1zm-341 1h30l12.5 2q18.1 39.2 49.5 66l30 23 26.5 13.5-15.5.5-1-1h-9l-14-3h-6l-13-4h-4l-35-12q-38.1-16.9-64.5-45.5-13.1-13.5-21-31.5l17.5-5zm496.5 6h2.5l6.5 5 2.5 4q2.3-.7 1.5 1.5l26 24 1 2v15l-6.5 31.5-5.5-7.5q-1.8-10.7-7-18l-20-26q-5-9-3-25zm-589.5 44 2.5.5v12q-2.5 14.5-12.5 21.5-11.2 8.8-28 12l-7.5 5.5v4l-5 14q-6.2 14.8-15.5 26.5l-3.5-8.5-7-32q3.8-13.7 13.5-21.5l17-10 21-8zm541.5 0 8.5 3 34 19 17 7 11.5 10.5 7 14v8l-8.5 34.5-11.5-20.5-6-19-5.5-8.5-17-5-8-4-12.5-10.5-7-11-2-8zm-527.5 63 2.5 2.5v10q-4.9 15.1-16.5 23.5L224 448.5q-11.4 26.1-26.5 48.5L186 469.5l-4-11v-4q3.9-11.6 12.5-18.5l11-8 26-13zm514.5 1 7.5 3q23.4 17.1 50 31l11.5 11.5 4 7 1 6-14 37.5-3-1.5-13-22-13-27.5q-13.8-7.6-24-19.5-8.3-7.2-8-23zM427.5 743l5.5 3.5v37l-2.5 3.5-6.5-1-1-2.5v-36l2.5-3.5zm92.5 1q6.3-1.5 8 2.5l1 9-2.5 4.5-6.5 1zm68 0q7.1-1.8 9 2.5v14l-1.5 1.5-6 1-1.5-1.5zm-227.5 5 3.5 27h-8v-3.5l2-7 1-14zm197 0 4.5 27h-8v-7.5zm161 0 3.5 27h-7.5l-.5-1.5z"/><path fill="#faf7f6" stroke="#faf7f6" d="m511 92 5 3.5q24.5 26.5 43 59l14 33 6 28-.5 1.5q18.6-14.9 42-25l26-9 17.5-3 1 6.5v10l1 1v30l-1 1v9l-1 1-2 17-7 21.5 11.5-2h29l1 1 18 2 27.5 8q-13.7 36.6-41.5 60-14.9 13.6-33 24l-27 13-25 9-25 6h-6l-15 3h-9l-1 1h-39l-9-2-1 1h-11l-1 1h-31l-1-1h-10l-1-1h-7l-1-1-17-2-20-5-30-11q-41.7-17.8-69.5-49.5-17.2-19.6-28-44.5l20.5-7 19-4q6.3 1.8 8-1h32l1 1h7.5l-9-28.5v-6l-2-7v-10l-1-1v-21l1-1v-13l1-1V181l17.5 2 23 7 28 14 17 14 1.5-1.5v-8l5-22 10-26 20-33zm2 20q-25 24-41 57v3q22 20 40 45-1 2 2 1 12-19 28-35 2 1 1-1l8-7 2-3v-3l-5-10-9-14zm-47 70-5 18-3 17v12l2 2q-1 2 2 1l17 22 17 25 10 18 7 16 26-48q13-20 29-36v-13l-1-1-1-11-7-22q-29 26-46 63-17-36-45-61 1-3-2-2Zm-95 10v8l-1 1v28q3 1 1 8l4 19 7 21 3 2 40 14q18 8 32 20h1l-4-9-6-27-1-16-1-1v-29l-31-23q-20-11-44-16Zm282 0-12 3-24 10q-19 10-34 23l-3 3v25l-1 1v10l-1 1-1 12-5 21-4 11 1 1 14-10 34-17 26-7 3-6 4-13 5-27v-37l-1-1q1-4-1-3Zm-84 51q-17 20-31 43l-25 53q1 3-2 2v-3l-6-17-11-24q-16-29-36-53l-2 1 1 1v18l6 31 10 30 8 18 1 1-44-32-26-13-22-8q7 17 19 31 21 23 47 42l25 15 29 11h6l8-2 27-12q24-15 46-33 25-21 40-52l-21 7-22 11q-26 14-47 33h-2l5-9 9-25 5-18 5-29zm106 42-1 1-22 1q-12 24-28 44-21 22-45 40-16 12-35 19l-1 2 4-1 2 1 2-1h13l9-2h7l20-4 36-11 30-15 23-17q23-19 37-48l-24-7zm-341 1-17 3-18 5q8 18 21 32 26 28 65 45l35 12h4l13 4h6l14 3h9l1 1h15l-26-14-30-23q-32-27-50-66l-12-2zm-222.5-45q10.3-1.2 16 2l10.5 8.5 6 9 6 20 1 15 1 1v15l1 1 1 23 1 1v8l5.5 30.5 10-12 15-10 29-12 26-17h4l6.5 4.5 3 8v10q-4 20-17.5 30.5l-10 7-16 6-6.5 4.5-3 10-10 22 3.5-2.5 33-18 21-15q2.7-2.8 9-2l7.5 5.5 2 4v14l-5 12-11 14.5-18 13-11 23.5-18 30v3l14.5 15.5 26 16 12 6h4q12.2-4.8 19.5-14.5l16-24 2-10v-9l1-1v-19l5-20q6.7-15.8 19.5-25.5l10-6 13-2 5 1 5.5 3.5 1 4-2.5 3.5-13-2q-15.2 3.8-22.5 15.5l-5 8-5 16-1 29-1 1v8l-3 10q-10.6 20.9-27.5 35.5l-13 8h-9Q222 543 199 519.5l-9-12-6-14-9-24v-3l-2-3v-3l-2-3-8-26-1-7-2-3-7-28-8-44-1-16-1-1v-12l-1-1-1-25-1-1v-7l-2-10-6-15-7.5-7.5q-3.2-3-9.5-2v13.5l1 1v33l-1 1-1 23-4 21v15l1 1 1 36 6 34 1 14 1 1v10l1 1v27l-1 1-1 15-5 19v19l-2.5 2.5q-5.2 1.3-6.5-1.5-3.3-4.7-2-14l7-35 1-17-1-3v-18l-1-1-1-17-6-29v-8l-1.5-2.5-3.5 3.5-2 9v25l1 1v38l-7 24-10 20-3 9v9q19 61 49 111 25.9 42.1 61.5 74.5 36.6 33.9 86.5 54.5l-1.5-.5h-3l-12-5-35-18-14-9q-31.6-21.4-56.5-49.5-29.4-31.6-50-72l-22-47-13-36-1-9 2-9q10.1-18.9 17-41l1-5v-69l4-13 5.5-5.5 6.5-1v-7.5l-1-1v-33l1-1v-6l3-15v-12l1-1v-42l-1-1v-12q.9-6.6 5.5-9.5zM241 336l-25 16-21 8-17 10q-10 8-14 22l7 32 4 8q9-12 15-26l5-14v-4l8-6q16-3 28-12 10-7 12-21v-12zm14 63-23 16-26 13-11 8q-9 7-13 19v4l4 11 12 27q15-22 26-48l17-14q11-8 16-23v-10zm648.5-158q11.8-1.8 15.5 4.5l2 12-1 1v47l1 1v11l4 21 1 15-1 1v25l-1 3.5q9-.3 12 6.5l4 14v68l4 14 15 35v14l-19 51-22 44q-24.1 41.4-56.5 74.5l-2.5 1.5q.8 2.3-1.5 1.5-19.4 20.1-43 36l-41 22-21 8v-1l11-4 34-18 37.5-28q-1.1-2.7 1.5-2l29.5-30.5q20.9-24.6 38-53l20-38 10-23 14-39 1-14-14-31-5-16q1.5-5.5-1-7v-27l1-1v-32q-2.5-1.5-1-7l-3-7.5q-4-1.4-2 5.5l-1 1v6l-3 12-2 21-2 8-1 38 1 1v8l1 1 1 11 3 10 1 17-2 5.5-6.5 1q-3.7-1.2-2.5-7.5l1-1v-8l-5-20-3-33 1-1v-15l1-1 2-25 5-28 1-32 1-1v-24l-3-12-1-17-1-1v-12l-1-1v-36l1-1V252h-5.5l-9.5 6.5-5 8-4 14-6 65-9 51-7 28-12 39-14 38q-6.3 15.7-18.5 25.5l-33 22-16 7h-9q-16.8-6.7-26.5-20.5-9.8-11.2-16-26l-2-10v-7l-1-1-1-24-4-16q-6.3-13.2-17.5-21.5l-10-5h-7l-5 2-4.5-3.5 5.5-7.5 14-1q17.1 5.9 26.5 19.5 7.5 9 11 22l1 11 1 1v11l1 1v14l3 15q9.5 18 24.5 30.5 4.8 5.7 15 6 29.7-12.8 50.5-34.5l2-5-15-24-14-29-2.5-2.5-16.5-12.5-2-3-5-5-7-12q-3.5-6.5-2-18 1.5-6.5 6.5-9.5l6-2 9 4 57 37 .5-2.5q-8.1-12.4-12-29l-4.5-6.5q-14-3.5-25-10L783 371.5l-6-8-5-12-1-15 5.5-9.5q2.3-3.2 9-2l32 18 23 10-4.5-5.5q-10.8-10.7-17-26l-2-9v-12l3-12 2-3.5q3.8-3.5 11.5-4l11.5 8.5q-.7 2.3 1.5 1.5 11.9 14 26.5 24l1-24.5 1-1v-8l2-10q4.1-14.4 13.5-23.5zM830 292l-2 7q-2 16 3 25l20 26q5 7 7 18l6 7 6-31v-15l-1-2-26-24q1-3-1-2l-3-4-6-5zm-48 44v10l2 8 7 11 13 10 8 4 17 5 5 9 6 19 12 20 8-34v-8l-7-14-11-11-17-7-34-19zm-13 64-1 3q0 15 8 23 10 11 24 19l13 28 13 22 3 1 14-37-1-6-4-7-11-12q-27-14-50-31zm-389.5 29h25l2.5 2.5v250l1.5 1.5h41l1.5 1.5 1 3v21l-3.5 4.5h-70l-1.5-1.5v-280zm85 0h27l2.5 2.5v248l5.5 7.5 11 1 4-1 4.5-3.5 2-6V430l2.5-1h25l3.5 2.5v249l-5 16-11.5 12.5-15 6-16 1-16-3q-12.2-4.7-19.5-14.5l-4-8-2-9v-251zm106 0h75l2.5 2.5v27L604 683h41.5l1.5 1.5 1 3v19l-1 5.5-2.5 1h-71l-2.5-2.5v-21l2-5v-5l4-16v-5l5-21 3-21 2-5v-5l5-21v-5l6-26 2-16 15-77.5h-44.5l-2.5-2.5v-27zm-181 306q13.8-1.8 17.5 6.5l1 12.5h-7.5l-1 1q1-8-3-11l-3-1-3.5 2.5-1 5 1 3 16 16q4.1 4.5 3 14-.9 6.6-5.5 9.5l-3 2-8 1-7-2-4.5-4.5q-3.1-5.6-2-14.5h10v9.5q1.3 3.8 7.5 2.5 3.8-2.2 2.5-9.5l-6.5-8.5-9.5-8.5q-4.7-4.8-3-16l5.5-7.5zm34 0h9l8.5 6.5 2 8v34l-5.5 9.5-3 2-9 1-8.5-4.5-3-5-1-5v-31q2.3-1.2 1-6l5.5-7.5zm4.5 8-2 1-3 4v36l1 2 7 1 2-3v-37zm-129-7h13.5l.5 3.5 6.5 34.5 6.5-38h13.5l.5.5V795h-8.5l-1.5-1.5 1-2-1-4v-2l1-2v-32h-1l-8 43.5h-7v-5.5l-7.5-37.5-.5 24.5 1 3v2l-1 2 1 1v9l-1.5 1.5H299zm55.5 0H367v4.5l10 53-1.5 1.5H367l-2-10.5.5-1.5h-8l-1-1-1.5 1.5-1 10-1.5 1.5h-8l-.5-2.5 4-18v-6l5-25v-6zm6.5 13-2 3-1 14-2 7v3h8zm85-13h28.5l.5.5v7.5h-10v50.5l-.5.5h-8l-1.5-1.5V744h-9zm33 0h25.5l.5.5v7.5h-16v15h11v8h-11v19h16v9h-26zm31 0h18.5l7.5 4.5 2 4v13l-4.5 5.5-2.5 1.5 5 2.5 2 5.5V795h-9v-4.5l-1-1v-18l-2.5-2.5q-5.4-.6-5.5.5V795h-10zm10 8v17l7-1 2-4-1-9q-2-4-8-3Zm31-8h12.5l.5 2.5 2 6 8 50.5h-10v-6.5l-2.5-6.5q-1.5 2.5-7 1-1.3-2.2-2.5.5.8 7.7-1 11.5h-9v-3.5l1-1v-6l1-1zm7 13-4 20v7h8zm21-13h18.5q6.1 1.4 8.5 6.5 2.4 7.1 1 18l-4 7.5-3.5 2-11.5 1v24h-9zm9 8v18l2 1 6-1 1-1v-14q-2-5-9-3Zm24-8h25.5l.5.5v7.5h-16v15h11v8h-11v17.5l-.5 1.5H638v7.5l-1.5 1.5H612zm30 0h9.5l.5.5v47l2.5 3.5q5.3 1.3 6.5-1.5l1-2V736h8.5l.5.5v50l-4.5 6.5-3 2-9 1q-6.6-.9-9.5-5.5l-2-4q1.5-5.5-1-7zm33 0h29.5l.5.5v7.5h-10v50.5l-.5.5H685v-50.5l-.5-.5H675zm37 0h12.5l.5 3.5 10 55.5h-10v-4.5l-1-1V783h-8.5l-1-1-1.5 1.5-1 11.5h-9v-5.5zm7 13-5 26 1 1h7z"/></svg>