<svg xmlns="http://www.w3.org/2000/svg" version="1.1" xmlns:xlink="http://www.w3.org/1999/xlink" width="1000" height="1000"><g clip-path="url(#SvgjsClipPath1161)"><rect width="1000" height="1000" fill="#955e5d"></rect><g transform="matrix(0.9765625,0,0,0.9765625,0,0)"><svg xmlns="http://www.w3.org/2000/svg" version="1.1" width="1024" height="1024" desc="Created with imagetracer.js version 1.2.6"><path fill="rgb(149,94,93)" stroke="rgb(149,94,93)" stroke-width="1" opacity="1" d="M 0 0 L 1024 0 L 1024 1024 L 0 1024 L 0 0 Z M 511 92 L 483 128 L 463 161 L 453 187 L 448 209 L 448 217 L 447 218 L 430 204 L 402 190 L 379 183 L 361 181 L 361 188 L 360 189 L 360 202 L 359 203 L 359 224 L 360 225 L 360 235 L 362 242 L 362 248 L 371 276 L 364 276 L 363 275 L 331 275 Q 329 278 323 276 L 304 280 L 283 287 Q 294 312 311 332 Q 339 363 381 381 L 411 392 L 431 397 L 448 399 L 449 400 L 456 400 L 457 401 L 467 401 L 468 402 L 499 402 L 500 401 L 511 401 L 512 400 L 521 402 L 560 402 L 561 401 L 570 401 L 585 398 L 591 398 L 616 392 L 641 383 L 668 370 Q 686 360 701 346 Q 728 323 742 286 L 715 278 L 697 276 L 696 275 L 667 275 L 655 277 L 662 256 L 664 239 L 665 238 L 665 229 L 666 228 L 666 198 L 665 197 L 665 187 L 664 180 L 647 183 L 621 192 Q 597 202 579 217 L 579 216 L 573 188 L 559 155 Q 540 122 516 96 L 511 92 Z M 112 241 L 110 242 Q 105 245 104 252 L 104 264 L 105 265 L 105 307 L 104 308 L 104 320 L 101 335 L 101 341 L 100 342 L 100 375 L 101 376 L 101 383 L 95 384 L 89 390 L 85 403 L 85 472 L 84 477 Q 77 499 67 518 L 65 527 L 66 536 L 79 572 L 101 619 Q 122 659 151 691 Q 195 741 262 769 L 264 769 Q 220 749 187 718 Q 151 686 125 644 Q 95 593 76 533 L 76 524 L 79 515 L 89 495 L 96 471 L 96 433 L 95 432 L 95 407 L 97 398 L 101 394 L 102 397 L 102 405 L 108 434 L 109 451 L 110 452 L 110 470 L 111 473 L 110 490 L 103 525 Q 102 534 105 539 Q 106 541 112 540 L 114 538 L 114 519 L 119 500 L 120 485 L 121 484 L 121 457 L 120 456 L 120 446 L 119 445 L 118 431 L 112 397 L 111 361 L 110 360 L 110 345 L 114 324 L 115 301 L 116 300 L 116 267 L 115 266 L 115 252 Q 121 251 125 254 L 132 262 L 138 277 L 140 287 L 140 294 L 141 295 L 142 320 L 143 321 L 143 333 L 144 334 L 145 350 L 153 394 L 160 422 L 162 425 L 163 432 L 171 458 L 173 461 L 173 464 L 175 467 L 175 470 L 184 494 L 190 508 L 199 520 Q 222 543 256 556 L 265 556 L 278 548 Q 294 533 305 513 L 308 503 L 308 495 L 309 494 L 310 465 L 315 449 L 320 441 Q 327 429 343 425 L 356 427 L 358 424 L 357 420 L 352 416 L 347 415 L 334 417 L 324 423 Q 311 433 304 449 L 299 469 L 299 488 L 298 489 L 298 498 L 296 508 L 280 532 Q 273 541 261 546 L 257 546 L 245 540 L 219 524 L 204 509 L 204 506 L 222 476 L 233 452 L 251 439 L 262 425 L 267 413 L 267 399 L 265 395 L 258 389 Q 251 388 249 391 L 228 406 L 195 424 L 191 427 L 201 405 L 204 395 L 211 390 L 227 384 L 237 377 Q 250 367 254 347 L 254 337 L 251 329 L 245 324 L 241 324 L 215 341 L 186 353 L 171 363 L 161 375 L 155 345 L 155 337 L 154 336 L 153 313 L 152 312 L 152 297 L 151 296 L 150 281 L 144 261 L 138 252 L 128 243 Q 122 240 112 241 Z M 904 241 L 891 248 Q 881 257 877 272 L 875 282 L 875 290 L 874 291 L 873 315 Q 858 305 847 291 Q 844 292 845 290 L 834 281 Q 826 281 822 285 L 820 289 L 817 301 L 817 313 L 819 322 Q 825 337 836 348 L 841 353 L 818 343 L 786 325 Q 779 324 777 327 L 771 337 L 772 352 L 777 364 L 783 372 L 796 382 Q 806 389 821 392 L 825 399 Q 829 415 837 428 L 837 430 L 780 393 L 771 389 L 765 391 Q 760 394 758 401 Q 757 412 760 419 L 767 431 L 772 436 L 774 439 L 791 451 L 793 454 L 807 483 L 822 507 L 820 512 Q 799 533 770 546 Q 759 546 755 540 Q 740 527 730 510 L 727 495 L 727 481 L 726 480 L 726 469 L 725 468 L 724 457 Q 721 443 713 435 Q 704 421 687 415 L 673 416 L 667 424 L 672 427 L 677 425 L 684 425 L 694 430 Q 705 438 711 452 L 715 468 L 716 492 L 717 493 L 717 500 L 719 510 Q 725 524 735 536 Q 745 549 762 556 L 771 556 L 787 549 L 820 527 Q 832 517 838 502 L 852 464 L 864 425 L 871 397 L 880 346 L 886 281 L 890 267 L 895 259 L 905 252 L 910 252 L 910 264 L 909 265 L 909 301 L 910 302 L 910 314 L 911 315 L 912 332 L 915 344 L 915 368 L 914 369 L 913 401 L 908 429 L 906 454 L 905 455 L 905 470 L 904 471 L 907 504 L 912 524 L 912 532 L 911 533 Q 910 539 914 540 L 920 539 L 922 534 L 921 517 L 918 507 L 917 496 L 916 495 L 916 487 L 915 486 L 916 448 L 918 440 L 920 419 L 923 407 L 923 401 L 924 400 Q 922 393 926 394 L 929 402 Q 928 407 930 409 L 930 441 L 929 442 L 929 469 Q 932 470 930 476 L 935 492 L 949 523 L 948 537 L 934 576 L 924 599 L 904 637 Q 887 665 866 690 L 837 720 Q 834 719 835 722 L 798 750 L 765 767 L 765 768 L 774 765 L 800 752 L 815 743 Q 838 727 858 707 Q 860 708 859 706 L 862 704 Q 894 671 918 630 L 940 586 L 959 535 L 959 521 L 944 486 L 940 472 L 940 404 L 936 390 Q 933 383 924 383 L 925 380 L 925 355 L 926 354 L 925 339 L 921 318 L 921 307 L 920 306 L 920 259 L 921 258 L 919 246 Q 915 239 904 241 Z M 380 429 L 377 432 L 377 712 L 379 713 L 449 713 L 452 709 L 452 688 L 451 685 L 450 683 L 409 683 L 407 682 L 407 432 L 405 429 L 380 429 Z M 465 429 L 463 431 L 463 682 L 465 691 L 469 699 Q 476 708 489 713 L 505 716 L 521 715 L 536 709 L 547 697 L 552 681 L 552 432 L 549 429 L 524 429 L 521 430 L 521 678 L 519 684 L 515 687 L 511 688 L 500 687 L 494 680 L 494 432 L 492 429 L 465 429 Z M 571 429 L 568 432 L 568 459 L 571 461 L 615 461 L 600 539 L 598 555 L 592 581 L 592 586 L 587 607 L 587 612 L 585 617 L 582 638 L 577 659 L 577 664 L 573 680 L 573 685 L 571 690 L 571 711 L 574 713 L 645 713 L 647 712 L 648 707 L 648 705 L 648 688 L 647 685 L 646 683 L 604 683 L 648 459 L 648 432 L 646 429 L 571 429 Z M 390 735 L 386 737 L 380 745 Q 378 756 383 761 L 393 769 L 399 778 Q 400 785 397 787 Q 390 788 389 785 L 389 775 L 379 775 Q 378 784 381 790 L 386 794 L 393 796 L 401 795 L 404 793 Q 408 790 409 784 Q 410 774 406 770 L 390 754 L 389 751 L 390 746 L 394 743 L 397 744 Q 400 747 400 755 L 401 754 L 408 754 L 407 742 Q 403 733 390 735 Z M 424 735 L 420 737 L 414 745 Q 415 749 413 751 L 413 782 L 414 787 L 417 792 L 426 796 L 435 795 L 438 793 L 443 784 L 443 750 L 441 742 L 433 735 L 424 735 Z M 299 736 L 299 795 L 307 795 L 308 794 L 308 785 L 307 784 L 308 782 L 308 780 L 307 777 L 308 752 L 315 790 L 315 795 L 322 795 L 330 752 L 331 752 L 331 784 L 330 786 L 330 788 L 331 792 L 330 794 L 332 795 L 340 795 L 340 737 L 340 736 L 326 736 L 320 774 L 313 740 L 313 736 L 299 736 Z M 355 736 L 353 738 L 353 744 L 348 769 L 348 775 L 344 793 L 345 795 L 353 795 L 354 794 L 355 784 L 357 782 L 358 783 L 366 783 L 365 785 L 367 795 L 376 795 L 377 794 L 367 741 L 367 736 L 355 736 Z M 446 736 L 446 744 L 455 744 L 455 794 L 457 795 L 465 795 L 465 795 L 465 744 L 475 744 L 475 737 L 475 736 L 446 736 Z M 479 736 L 479 795 L 505 795 L 505 786 L 489 786 L 489 767 L 500 767 L 500 759 L 489 759 L 489 744 L 505 744 L 505 737 L 505 736 L 479 736 Z M 510 736 L 510 795 L 520 795 L 520 770 Q 520 768 526 769 L 528 772 L 528 790 L 529 791 L 529 795 L 538 795 L 538 773 L 536 767 L 531 765 L 534 763 L 538 758 L 538 745 L 536 741 L 529 736 L 510 736 Z M 551 736 L 544 784 L 543 785 L 543 791 L 542 792 L 542 795 L 551 795 Q 553 791 552 784 Q 553 781 555 783 Q 560 785 562 782 L 564 789 L 564 795 L 574 795 L 566 745 L 564 739 L 564 736 L 551 736 Z M 579 736 L 579 795 L 588 795 L 588 771 L 600 770 L 603 768 L 607 761 Q 608 750 606 743 Q 604 737 598 736 L 579 736 Z M 612 736 L 612 795 L 637 795 L 638 794 L 638 786 L 622 786 L 622 785 L 622 767 L 633 767 L 633 759 L 622 759 L 622 744 L 638 744 L 638 737 L 638 736 L 612 736 Z M 642 736 L 642 780 Q 645 781 643 787 L 645 791 Q 648 795 655 796 L 664 795 L 667 793 L 671 787 L 671 737 L 671 736 L 662 736 L 662 784 L 661 786 Q 660 788 655 787 L 652 784 L 652 737 L 652 736 L 642 736 Z M 675 736 L 675 744 L 685 744 L 685 745 L 685 795 L 695 795 L 695 795 L 695 744 L 705 744 L 705 737 L 705 736 L 675 736 Z M 712 736 L 703 790 L 703 795 L 712 795 L 713 784 L 715 782 L 716 783 L 724 783 L 724 790 L 725 791 L 725 795 L 735 795 L 725 740 L 725 736 L 712 736 Z M 762 768 L 757 770 L 757 771 Q 762 772 764 769 L 762 768 Z M 265 769 L 265 770 L 269 772 L 272 772 L 265 769 Z "></path><path fill="rgb(149,94,93)" stroke="rgb(149,94,93)" stroke-width="1" opacity="1" d="M 512.5 112 L 539 144.5 L 548 158.5 L 553 168.5 L 553 171.5 L 551 175 L 543 181.5 Q 543.8 183.8 541.5 183 Q 526.1 199.1 513.5 218 Q 511.3 218.8 512 216.5 Q 494.3 191.7 472 171.5 L 472 168.5 Q 487.8 135.8 512.5 112 Z "></path><path fill="rgb(149,94,93)" stroke="rgb(149,94,93)" stroke-width="1" opacity="1" d="M 466 182 Q 468.7 180.9 468 183.5 Q 495.6 208.9 512.5 245 Q 530.4 208.4 558.5 182 L 566 203.5 L 567 214.5 L 568 215.5 L 568 228.5 Q 551.6 244.6 539 264.5 L 512.5 313 L 506 296.5 L 496 278.5 L 479 253.5 L 462 232 Q 459.3 233.1 460 230.5 L 458 228.5 L 458 216.5 L 461 199.5 L 466 182 Z "></path><path fill="rgb(149,94,93)" stroke="rgb(149,94,93)" stroke-width="1" opacity="1" d="M 371 192 Q 395 197.1 414.5 208 L 446 230.5 L 446 259.5 L 447 260.5 L 448 276.5 L 454 303.5 L 458 312.5 L 456.5 313 Q 442.5 301 424.5 293 L 384.5 279 L 382 276.5 L 375 255.5 L 371 236.5 Q 372.8 230.2 370 228.5 L 370 200.5 L 371 199.5 L 371 192 Z "></path><path fill="rgb(149,94,93)" stroke="rgb(149,94,93)" stroke-width="1" opacity="1" d="M 652.5 192 Q 655.1 191.2 654 194.5 L 655 195.5 L 655 232.5 L 650 259.5 L 646 272.5 L 642.5 279 L 616.5 286 L 582.5 303 L 568.5 313 L 568 311.5 L 572 300.5 L 577 279.5 L 578 267.5 L 579 266.5 L 579 256.5 L 580 255.5 L 580 230.5 L 582.5 228 Q 597.6 214.6 616.5 205 L 640.5 195 L 652.5 192 Z "></path><path fill="rgb(149,94,93)" stroke="rgb(149,94,93)" stroke-width="1" opacity="1" d="M 568.5 243 L 569 260.5 L 564 289.5 L 559 307.5 L 550 332.5 L 545 341.5 L 546.5 342 Q 567.8 323.3 593.5 309 L 615.5 298 L 637 291 Q 622.2 321.9 596.5 343 Q 575.4 361.4 550.5 376 L 523.5 388 L 515.5 390 L 509.5 390 L 480.5 379 L 455.5 364 Q 429.6 345.4 409 321.5 Q 397 308 390 291 L 411.5 299 L 437.5 312 L 480.5 343 L 481 341.5 L 473 324.5 L 463 294.5 L 457 263.5 L 457 245.5 L 456 244.5 L 457.5 244 Q 478.2 267.8 494 296.5 L 505 320.5 L 511 337.5 L 511 341 Q 514 342.3 513 338.5 L 538 285.5 Q 551.6 262.6 568.5 243 Z "></path><path fill="rgb(149,94,93)" stroke="rgb(149,94,93)" stroke-width="1" opacity="1" d="M 674.5 285 L 701.5 287 L 726 294 Q 712.5 322.6 688.5 342 L 665.5 359 L 635.5 374 L 599.5 385 L 579.5 389 L 572.5 389 L 563.5 391 L 550.5 391 L 548.5 392 L 546.5 391 L 542.5 392 L 543.5 390 Q 563.3 382.8 578.5 371 Q 603.4 352.9 624 330.5 Q 639.9 310.9 651.5 287 L 673.5 286 L 674.5 285 Z "></path><path fill="rgb(149,94,93)" stroke="rgb(149,94,93)" stroke-width="1" opacity="1" d="M 333.5 286 L 363.5 286 L 376 288 Q 394.1 327.2 425.5 354 L 455.5 377 L 482 390.5 L 466.5 391 L 465.5 390 L 456.5 390 L 442.5 387 L 436.5 387 L 423.5 383 L 419.5 383 L 384.5 371 Q 346.4 354.1 320 325.5 Q 306.9 312 299 294 L 316.5 289 L 333.5 286 Z "></path><path fill="rgb(149,94,93)" stroke="rgb(149,94,93)" stroke-width="1" opacity="1" d="M 830 292 L 832.5 292 L 839 297 L 841.5 301 Q 843.8 300.3 843 302.5 L 869 326.5 L 870 328.5 L 870 343.5 L 863.5 375 L 858 367.5 Q 856.2 356.8 851 349.5 L 831 323.5 Q 826 314.5 828 298.5 L 830 292 Z "></path><path fill="rgb(149,94,93)" stroke="rgb(149,94,93)" stroke-width="1" opacity="1" d="M 240.5 336 L 243 336.5 L 243 348.5 Q 240.5 363 230.5 370 Q 219.3 378.8 202.5 382 L 195 387.5 L 195 391.5 L 190 405.5 Q 183.8 420.3 174.5 432 L 171 423.5 L 164 391.5 Q 167.8 377.8 177.5 370 L 194.5 360 L 215.5 352 L 240.5 336 Z "></path><path fill="rgb(149,94,93)" stroke="rgb(149,94,93)" stroke-width="1" opacity="1" d="M 782 336 L 790.5 339 L 824.5 358 L 841.5 365 L 853 375.5 L 860 389.5 L 860 397.5 L 851.5 432 L 840 411.5 L 834 392.5 L 828.5 384 L 811.5 379 L 803.5 375 L 791 364.5 L 784 353.5 L 782 345.5 L 782 336 Z "></path><path fill="rgb(149,94,93)" stroke="rgb(149,94,93)" stroke-width="1" opacity="1" d="M 254.5 399 L 257 401.5 L 257 411.5 Q 252.1 426.6 240.5 435 L 224 448.5 Q 212.6 474.6 197.5 497 L 186 469.5 L 182 458.5 L 182 454.5 Q 185.9 442.9 194.5 436 L 205.5 428 L 231.5 415 L 254.5 399 Z "></path><path fill="rgb(149,94,93)" stroke="rgb(149,94,93)" stroke-width="1" opacity="1" d="M 769 400 L 776.5 403 Q 799.9 420.1 826.5 434 L 838 445.5 L 842 452.5 L 843 458.5 L 829 496 L 826 494.5 L 813 472.5 L 800 445 Q 786.2 437.4 776 425.5 Q 767.7 418.3 768 402.5 L 769 400 Z "></path><path fill="rgb(149,94,93)" stroke="rgb(149,94,93)" stroke-width="1" opacity="1" d="M 427.5 743 L 433 746.5 L 433 783.5 L 430.5 787 L 424 786 L 423 783.5 L 423 747.5 L 425.5 744 L 427.5 743 Z "></path><path fill="rgb(149,94,93)" stroke="rgb(149,94,93)" stroke-width="1" opacity="1" d="M 520 744 Q 526.3 742.5 528 746.5 L 529 755.5 L 526.5 760 L 520 761 L 520 744 Z "></path><path fill="rgb(149,94,93)" stroke="rgb(149,94,93)" stroke-width="1" opacity="1" d="M 588 744 Q 595.1 742.2 597 746.5 L 597 760.5 L 595.5 762 L 589.5 763 L 588 761.5 L 588 744 Z "></path><path fill="rgb(149,94,93)" stroke="rgb(149,94,93)" stroke-width="1" opacity="1" d="M 360.5 749 L 364 776 L 356 776 L 356 772.5 L 358 765.5 L 359 751.5 L 360.5 749 Z "></path><path fill="rgb(149,94,93)" stroke="rgb(149,94,93)" stroke-width="1" opacity="1" d="M 557.5 749 L 562 776 L 554 776 L 554 768.5 L 557.5 749 Z "></path><path fill="rgb(149,94,93)" stroke="rgb(149,94,93)" stroke-width="1" opacity="1" d="M 718.5 749 L 722 776 L 714.5 776 L 714 774.5 L 718.5 749 Z "></path><path fill="rgb(250,247,246)" stroke="rgb(250,247,246)" stroke-width="1" opacity="1" d="M 511 92 L 516 95.5 Q 540.5 122 559 154.5 L 573 187.5 L 579 215.5 L 578.5 217 Q 597.1 202.1 620.5 192 L 646.5 183 L 664 180 L 665 186.5 L 665 196.5 L 666 197.5 L 666 227.5 L 665 228.5 L 665 237.5 L 664 238.5 L 662 255.5 L 655 277 L 666.5 275 L 695.5 275 L 696.5 276 L 714.5 278 L 742 286 Q 728.3 322.6 700.5 346 Q 685.6 359.6 667.5 370 L 640.5 383 L 615.5 392 L 590.5 398 L 584.5 398 L 569.5 401 L 560.5 401 L 559.5 402 L 520.5 402 L 511.5 400 L 510.5 401 L 499.5 401 L 498.5 402 L 467.5 402 L 466.5 401 L 456.5 401 L 455.5 400 L 448.5 400 L 447.5 399 L 430.5 397 L 410.5 392 L 380.5 381 Q 338.8 363.2 311 331.5 Q 293.8 311.9 283 287 L 303.5 280 L 322.5 276 Q 328.8 277.8 330.5 275 L 362.5 275 L 363.5 276 L 371 276 L 362 247.5 L 362 241.5 L 360 234.5 L 360 224.5 L 359 223.5 L 359 202.5 L 360 201.5 L 360 188.5 L 361 187.5 L 361 181 L 378.5 183 L 401.5 190 L 429.5 204 L 446.5 218 L 448 216.5 L 448 208.5 L 453 186.5 L 463 160.5 L 483 127.5 L 511 92 Z M 513 112 Q 488 136 472 169 L 472 172 Q 494 192 512 217 Q 511 219 514 218 Q 526 199 542 183 Q 544 184 543 182 L 551 175 L 553 172 L 553 169 L 548 159 L 539 145 L 513 112 Z M 466 182 L 461 200 L 458 217 L 458 229 L 460 231 Q 459 233 462 232 L 479 254 L 496 279 L 506 297 L 513 313 L 539 265 Q 552 245 568 229 L 568 216 L 567 215 L 566 204 L 559 182 Q 530 208 513 245 Q 496 209 468 184 Q 469 181 466 182 Z M 371 192 L 371 200 L 370 201 L 370 229 Q 373 230 371 237 L 375 256 L 382 277 L 385 279 L 425 293 Q 443 301 457 313 L 458 313 L 454 304 L 448 277 L 447 261 L 446 260 L 446 231 L 415 208 Q 395 197 371 192 Z M 653 192 L 641 195 L 617 205 Q 598 215 583 228 L 580 231 L 580 256 L 579 257 L 579 267 L 578 268 L 577 280 L 572 301 L 568 312 L 569 313 L 583 303 L 617 286 L 643 279 L 646 273 L 650 260 L 655 233 L 655 196 L 654 195 Q 655 191 653 192 Z M 569 243 Q 552 263 538 286 L 513 339 Q 514 342 511 341 L 511 338 L 505 321 L 494 297 Q 478 268 458 244 L 456 245 L 457 246 L 457 264 L 463 295 L 473 325 L 481 343 L 482 344 L 438 312 L 412 299 L 390 291 Q 397 308 409 322 Q 430 345 456 364 L 481 379 L 510 390 L 516 390 L 524 388 L 551 376 Q 575 361 597 343 Q 622 322 637 291 L 616 298 L 594 309 Q 568 323 547 342 L 545 342 L 550 333 L 559 308 L 564 290 L 569 261 L 569 243 Z M 675 285 L 674 286 L 652 287 Q 640 311 624 331 Q 603 353 579 371 Q 563 383 544 390 L 543 392 L 547 391 L 549 392 L 551 391 L 564 391 L 573 389 L 580 389 L 600 385 L 636 374 L 666 359 L 689 342 Q 712 323 726 294 L 702 287 L 675 285 Z M 334 286 L 317 289 L 299 294 Q 307 312 320 326 Q 346 354 385 371 L 420 383 L 424 383 L 437 387 L 443 387 L 457 390 L 466 390 L 467 391 L 482 391 L 456 377 L 426 354 Q 394 327 376 288 L 364 286 L 334 286 Z "></path><path fill="rgb(250,247,246)" stroke="rgb(250,247,246)" stroke-width="1" opacity="1" d="M 111.5 241 Q 121.8 239.8 127.5 243 L 138 251.5 L 144 260.5 L 150 280.5 L 151 295.5 L 152 296.5 L 152 311.5 L 153 312.5 L 154 335.5 L 155 336.5 L 155 344.5 L 160.5 375 L 170.5 363 L 185.5 353 L 214.5 341 L 240.5 324 L 244.5 324 L 251 328.5 L 254 336.5 L 254 346.5 Q 250 366.5 236.5 377 L 226.5 384 L 210.5 390 L 204 394.5 L 201 404.5 L 191 426.5 L 194.5 424 L 227.5 406 L 248.5 391 Q 251.2 388.2 257.5 389 L 265 394.5 L 267 398.5 L 267 412.5 L 262 424.5 L 251 439 L 233 452 L 222 475.5 L 204 505.5 L 204 508.5 L 218.5 524 L 244.5 540 L 256.5 546 L 260.5 546 Q 272.7 541.2 280 531.5 L 296 507.5 L 298 497.5 L 298 488.5 L 299 487.5 L 299 468.5 L 304 448.5 Q 310.7 432.7 323.5 423 L 333.5 417 L 346.5 415 L 351.5 416 L 357 419.5 L 358 423.5 L 355.5 427 L 342.5 425 Q 327.3 428.8 320 440.5 L 315 448.5 L 310 464.5 L 309 493.5 L 308 494.5 L 308 502.5 L 305 512.5 Q 294.4 533.4 277.5 548 L 264.5 556 L 255.5 556 Q 222 543 199 519.5 L 190 507.5 L 184 493.5 L 175 469.5 L 175 466.5 L 173 463.5 L 173 460.5 L 171 457.5 L 163 431.5 L 162 424.5 L 160 421.5 L 153 393.5 L 145 349.5 L 144 333.5 L 143 332.5 L 143 320.5 L 142 319.5 L 141 294.5 L 140 293.5 L 140 286.5 L 138 276.5 L 132 261.5 L 124.5 254 Q 121.3 251 115 252 L 115 265.5 L 116 266.5 L 116 299.5 L 115 300.5 L 114 323.5 L 110 344.5 L 110 359.5 L 111 360.5 L 112 396.5 L 118 430.5 L 119 444.5 L 120 445.5 L 120 455.5 L 121 456.5 L 121 483.5 L 120 484.5 L 119 499.5 L 114 518.5 L 114 537.5 L 111.5 540 Q 106.3 541.3 105 538.5 Q 101.7 533.8 103 524.5 L 110 489.5 L 111 472.5 L 110 469.5 L 110 451.5 L 109 450.5 L 108 433.5 L 102 404.5 L 102 396.5 L 100.5 394 L 97 397.5 L 95 406.5 L 95 431.5 L 96 432.5 L 96 470.5 L 89 494.5 L 79 514.5 L 76 523.5 L 76 532.5 Q 95 593.5 125 643.5 Q 150.9 685.6 186.5 718 Q 223.1 751.9 273 772.5 L 271.5 772 L 268.5 772 L 256.5 767 L 221.5 749 L 207.5 740 Q 175.9 718.6 151 690.5 Q 121.6 658.9 101 618.5 L 79 571.5 L 66 535.5 L 65 526.5 L 67 517.5 Q 77.1 498.6 84 476.5 L 85 471.5 L 85 402.5 L 89 389.5 L 94.5 384 L 101 383 L 101 375.5 L 100 374.5 L 100 341.5 L 101 340.5 L 101 334.5 L 104 319.5 L 104 307.5 L 105 306.5 L 105 264.5 L 104 263.5 L 104 251.5 Q 104.9 244.9 109.5 242 L 111.5 241 Z M 241 336 L 216 352 L 195 360 L 178 370 Q 168 378 164 392 L 171 424 L 175 432 Q 184 420 190 406 L 195 392 L 195 388 L 203 382 Q 219 379 231 370 Q 241 363 243 349 L 243 337 L 241 336 Z M 255 399 L 232 415 L 206 428 L 195 436 Q 186 443 182 455 L 182 459 L 186 470 L 198 497 Q 213 475 224 449 L 241 435 Q 252 427 257 412 L 257 402 L 255 399 Z "></path><path fill="rgb(250,247,246)" stroke="rgb(250,247,246)" stroke-width="1" opacity="1" d="M 903.5 241 Q 915.3 239.2 919 245.5 L 921 257.5 L 920 258.5 L 920 305.5 L 921 306.5 L 921 317.5 L 925 338.5 L 926 353.5 L 925 354.5 L 925 379.5 L 924 383 Q 933 382.7 936 389.5 L 940 403.5 L 940 471.5 L 944 485.5 L 959 520.5 L 959 534.5 L 940 585.5 L 918 629.5 Q 893.9 670.9 861.5 704 L 859 705.5 Q 859.8 707.8 857.5 707 Q 838.1 727.1 814.5 743 L 773.5 765 L 752.5 773 L 752.5 772 L 763.5 768 L 797.5 750 L 835 722 Q 833.9 719.3 836.5 720 L 866 689.5 Q 886.9 664.9 904 636.5 L 924 598.5 L 934 575.5 L 948 536.5 L 949 522.5 L 935 491.5 L 930 475.5 Q 931.5 470 929 468.5 L 929 441.5 L 930 440.5 L 930 408.5 Q 927.5 407 929 401.5 L 926 394 Q 922 392.6 924 399.5 L 923 400.5 L 923 406.5 L 920 418.5 L 918 439.5 L 916 447.5 L 915 485.5 L 916 486.5 L 916 494.5 L 917 495.5 L 918 506.5 L 921 516.5 L 922 533.5 L 920 539 L 913.5 540 Q 909.8 538.8 911 532.5 L 912 531.5 L 912 523.5 L 907 503.5 L 904 470.5 L 905 469.5 L 905 454.5 L 906 453.5 L 908 428.5 L 913 400.5 L 914 368.5 L 915 367.5 L 915 343.5 L 912 331.5 L 911 314.5 L 910 313.5 L 910 301.5 L 909 300.5 L 909 264.5 L 910 263.5 L 910 252 L 904.5 252 L 895 258.5 L 890 266.5 L 886 280.5 L 880 345.5 L 871 396.5 L 864 424.5 L 852 463.5 L 838 501.5 Q 831.7 517.2 819.5 527 L 786.5 549 L 770.5 556 L 761.5 556 Q 744.7 549.3 735 535.5 Q 725.2 524.3 719 509.5 L 717 499.5 L 717 492.5 L 716 491.5 L 715 467.5 L 711 451.5 Q 704.7 438.3 693.5 430 L 683.5 425 L 676.5 425 L 671.5 427 L 667 423.5 L 672.5 416 L 686.5 415 Q 703.6 420.9 713 434.5 Q 720.5 443.5 724 456.5 L 725 467.5 L 726 468.5 L 726 479.5 L 727 480.5 L 727 494.5 L 730 509.5 Q 739.5 527.5 754.5 540 Q 759.3 545.7 769.5 546 Q 799.2 533.2 820 511.5 L 822 506.5 L 807 482.5 L 793 453.5 L 790.5 451 L 774 438.5 L 772 435.5 L 767 430.5 L 760 418.5 Q 756.5 412 758 400.5 Q 759.5 394 764.5 391 L 770.5 389 L 779.5 393 L 836.5 430 L 837 427.5 Q 828.9 415.1 825 398.5 L 820.5 392 Q 806.5 388.5 795.5 382 L 783 371.5 L 777 363.5 L 772 351.5 L 771 336.5 L 776.5 327 Q 778.8 323.8 785.5 325 L 817.5 343 L 840.5 353 L 836 347.5 Q 825.2 336.8 819 321.5 L 817 312.5 L 817 300.5 L 820 288.5 L 822 285 Q 825.8 281.5 833.5 281 L 845 289.5 Q 844.3 291.8 846.5 291 Q 858.4 305 873 315 L 874 290.5 L 875 289.5 L 875 281.5 L 877 271.5 Q 881.1 257.1 890.5 248 L 903.5 241 Z M 830 292 L 828 299 Q 826 315 831 324 L 851 350 Q 856 357 858 368 L 864 375 L 870 344 L 870 329 L 869 327 L 843 303 Q 844 300 842 301 L 839 297 L 833 292 L 830 292 Z M 782 336 L 782 346 L 784 354 L 791 365 L 804 375 L 812 379 L 829 384 L 834 393 L 840 412 L 852 432 L 860 398 L 860 390 L 853 376 L 842 365 L 825 358 L 791 339 L 782 336 Z M 769 400 L 768 403 Q 768 418 776 426 Q 786 437 800 445 L 813 473 L 826 495 L 829 496 L 843 459 L 842 453 L 838 446 L 827 434 Q 800 420 777 403 L 769 400 Z "></path><path fill="rgb(250,247,246)" stroke="rgb(250,247,246)" stroke-width="1" opacity="1" d="M 379.5 429 L 404.5 429 L 407 431.5 L 407 681.5 L 408.5 683 L 449.5 683 L 451 684.5 L 452 687.5 L 452 708.5 L 448.5 713 L 378.5 713 L 377 711.5 L 377 431.5 L 379.5 429 Z "></path><path fill="rgb(250,247,246)" stroke="rgb(250,247,246)" stroke-width="1" opacity="1" d="M 464.5 429 L 491.5 429 L 494 431.5 L 494 679.5 L 499.5 687 L 510.5 688 L 514.5 687 L 519 683.5 L 521 677.5 L 521 430 L 523.5 429 L 548.5 429 L 552 431.5 L 552 680.5 L 547 696.5 L 535.5 709 L 520.5 715 L 504.5 716 L 488.5 713 Q 476.3 708.3 469 698.5 L 465 690.5 L 463 681.5 L 463 430.5 L 464.5 429 Z "></path><path fill="rgb(250,247,246)" stroke="rgb(250,247,246)" stroke-width="1" opacity="1" d="M 570.5 429 L 645.5 429 L 648 431.5 L 648 458.5 L 604 683 L 645.5 683 L 647 684.5 L 648 687.5 L 648 704.5 L 648 706.5 L 647 712 L 644.5 713 L 573.5 713 L 571 710.5 L 571 689.5 L 573 684.5 L 573 679.5 L 577 663.5 L 577 658.5 L 582 637.5 L 585 616.5 L 587 611.5 L 587 606.5 L 592 585.5 L 592 580.5 L 598 554.5 L 600 538.5 L 615 461 L 570.5 461 L 568 458.5 L 568 431.5 L 570.5 429 Z "></path><path fill="rgb(250,247,246)" stroke="rgb(250,247,246)" stroke-width="1" opacity="1" d="M 389.5 735 Q 403.3 733.2 407 741.5 L 408 754 L 400.5 754 L 399.5 755 Q 400.5 747 396.5 744 L 393.5 743 L 390 745.5 L 389 750.5 L 390 753.5 L 406 769.5 Q 410.1 774 409 783.5 Q 408.1 790.1 403.5 793 L 400.5 795 L 392.5 796 L 385.5 794 L 381 789.5 Q 377.9 783.9 379 775 L 389 775 L 389 784.5 Q 390.3 788.3 396.5 787 Q 400.3 784.8 399 777.5 L 392.5 769 L 383 760.5 Q 378.3 755.7 380 744.5 L 385.5 737 L 389.5 735 Z "></path><path fill="rgb(250,247,246)" stroke="rgb(250,247,246)" stroke-width="1" opacity="1" d="M 423.5 735 L 432.5 735 L 441 741.5 L 443 749.5 L 443 783.5 L 437.5 793 L 434.5 795 L 425.5 796 L 417 791.5 L 414 786.5 L 413 781.5 L 413 750.5 Q 415.3 749.3 414 744.5 L 419.5 737 L 423.5 735 Z M 428 743 L 426 744 L 423 748 L 423 784 L 424 786 L 431 787 L 433 784 L 433 747 L 428 743 Z "></path><path fill="rgb(250,247,246)" stroke="rgb(250,247,246)" stroke-width="1" opacity="1" d="M 299 736 L 312.5 736 L 313 739.5 L 319.5 774 L 326 736 L 339.5 736 L 340 736.5 L 340 795 L 331.5 795 L 330 793.5 L 331 791.5 L 330 787.5 L 330 785.5 L 331 783.5 L 331 751.5 L 330 751.5 L 322 795 L 315 795 L 315 789.5 L 307.5 752 L 307 776.5 L 308 779.5 L 308 781.5 L 307 783.5 L 308 784.5 L 308 793.5 L 306.5 795 L 299 795 L 299 736 Z "></path><path fill="rgb(250,247,246)" stroke="rgb(250,247,246)" stroke-width="1" opacity="1" d="M 354.5 736 L 367 736 L 367 740.5 L 377 793.5 L 375.5 795 L 367 795 L 365 784.5 L 365.5 783 L 357.5 783 L 356.5 782 L 355 783.5 L 354 793.5 L 352.5 795 L 344.5 795 L 344 792.5 L 348 774.5 L 348 768.5 L 353 743.5 L 353 737.5 L 354.5 736 Z M 361 749 L 359 752 L 358 766 L 356 773 L 356 776 L 364 776 L 361 749 Z "></path><path fill="rgb(250,247,246)" stroke="rgb(250,247,246)" stroke-width="1" opacity="1" d="M 446 736 L 474.5 736 L 475 736.5 L 475 744 L 465 744 L 465 794.5 L 464.5 795 L 456.5 795 L 455 793.5 L 455 744 L 446 744 L 446 736 Z "></path><path fill="rgb(250,247,246)" stroke="rgb(250,247,246)" stroke-width="1" opacity="1" d="M 479 736 L 504.5 736 L 505 736.5 L 505 744 L 489 744 L 489 759 L 500 759 L 500 767 L 489 767 L 489 786 L 505 786 L 505 795 L 479 795 L 479 736 Z "></path><path fill="rgb(250,247,246)" stroke="rgb(250,247,246)" stroke-width="1" opacity="1" d="M 510 736 L 528.5 736 L 536 740.5 L 538 744.5 L 538 757.5 L 533.5 763 L 531 764.5 L 536 767 L 538 772.5 L 538 795 L 529 795 L 529 790.5 L 528 789.5 L 528 771.5 L 525.5 769 Q 520.1 768.4 520 769.5 L 520 795 L 510 795 L 510 736 Z M 520 744 L 520 761 L 527 760 L 529 756 L 528 747 Q 526 743 520 744 Z "></path><path fill="rgb(250,247,246)" stroke="rgb(250,247,246)" stroke-width="1" opacity="1" d="M 551 736 L 563.5 736 L 564 738.5 L 566 744.5 L 574 795 L 564 795 L 564 788.5 L 561.5 782 Q 560 784.5 554.5 783 Q 553.2 780.8 552 783.5 Q 552.8 791.2 551 795 L 542 795 L 542 791.5 L 543 790.5 L 543 784.5 L 544 783.5 L 551 736 Z M 558 749 L 554 769 L 554 776 L 562 776 L 558 749 Z "></path><path fill="rgb(250,247,246)" stroke="rgb(250,247,246)" stroke-width="1" opacity="1" d="M 579 736 L 597.5 736 Q 603.6 737.4 606 742.5 Q 608.4 749.6 607 760.5 L 603 768 L 599.5 770 L 588 771 L 588 795 L 579 795 L 579 736 Z M 588 744 L 588 762 L 590 763 L 596 762 L 597 761 L 597 747 Q 595 742 588 744 Z "></path><path fill="rgb(250,247,246)" stroke="rgb(250,247,246)" stroke-width="1" opacity="1" d="M 612 736 L 637.5 736 L 638 736.5 L 638 744 L 622 744 L 622 759 L 633 759 L 633 767 L 622 767 L 622 784.5 L 621.5 786 L 638 786 L 638 793.5 L 636.5 795 L 612 795 L 612 736 Z "></path><path fill="rgb(250,247,246)" stroke="rgb(250,247,246)" stroke-width="1" opacity="1" d="M 642 736 L 651.5 736 L 652 736.5 L 652 783.5 L 654.5 787 Q 659.8 788.3 661 785.5 L 662 783.5 L 662 736 L 670.5 736 L 671 736.5 L 671 786.5 L 666.5 793 L 663.5 795 L 654.5 796 Q 647.9 795.1 645 790.5 L 643 786.5 Q 644.5 781 642 779.5 L 642 736 Z "></path><path fill="rgb(250,247,246)" stroke="rgb(250,247,246)" stroke-width="1" opacity="1" d="M 675 736 L 704.5 736 L 705 736.5 L 705 744 L 695 744 L 695 794.5 L 694.5 795 L 685 795 L 685 744.5 L 684.5 744 L 675 744 L 675 736 Z "></path><path fill="rgb(250,247,246)" stroke="rgb(250,247,246)" stroke-width="1" opacity="1" d="M 712 736 L 724.5 736 L 725 739.5 L 735 795 L 725 795 L 725 790.5 L 724 789.5 L 724 783 L 715.5 783 L 714.5 782 L 713 783.5 L 712 795 L 703 795 L 703 789.5 L 712 736 Z M 719 749 L 714 775 L 715 776 L 722 776 L 719 749 Z "></path></svg></g></g><defs><clipPath id="SvgjsClipPath1161"><rect width="1000" height="1000" x="0" y="0" rx="500" ry="500"></rect></clipPath></defs></svg>